<svg version="1.1"
xmlns="http://www.w3.org/2000/svg"
xmlns:xlink="http://www.w3.org/1999/xlink"
width="100%" height="70%"
viewBox="0 0 450 450"
preserveAspectRatio="xMidYMin meet">
<defs>
    <g id="fuck">
        <path d="M263.267,186.811c9.157-4.639,3.301-19.454,8.731-27.441
            c9.857-14.498,42.983-13.7,48.646,8.731c3.469,13.742-6.338,29.921,4.989,38.667c6.143-3.953,3.628-10.64,4.989-14.967
            c1.376-4.373,2.604-9.343,6.236-12.474c14.579-12.563,39.245-2.173,43.658,9.979c4.891,13.47,1.246,40.484,1.246,57.378
            c0,20.827,0.998,42.512,0,57.377c-3.158,47.129-22.694,83.986-48.645,107.272c-22.274,19.983-59.054,38.575-101.035,38.667
            c-78.488,0.171-132.721-52.115-148.433-114.756c-5.875-23.422-4.863-52.612-9.979-77.335c-3.943-19.049-20.621-70.458,19.958-64.862
            c32.684,4.508,42.135,61.771,48.646,93.552c3.333-31.13-4.273-82.339,0-116.004c0.663-5.221,2.274-12.326,4.99-16.215
            c9.471-13.567,42.071-15.585,49.894,3.742c4.447,10.989-3.692,21.648,4.989,32.431c8.14-2.203,4.862-12.597,4.989-18.71
            c0.725-34.867,0-74.538,0-112.261c0-16.5-2.239-33.788,1.248-43.656c5.529-15.652,35.347-23.312,47.397-6.237
            c2.71,3.839,4.402,11.585,4.989,16.215c2.892,22.776,0,53.155,0,82.325c0,20.607-0.546,40.108,0,61.12
            C260.923,175.146,258.826,182.362,263.267,186.811z" />
    </g>
</defs>
<use xlink:href="#fuck" x="0" y="0" transform="translate(0,0)">
    <animateTransform attributeName="transform" 
    type="translate"
    additive="sum"    
    from="225, 0"
    to="0, 0"  
    beg="0s"
    dur="3s"
    repeatCount = "1"/>
    <animateTransform attributeName="transform"
    id="o1"
    type="rotate"
    additive="sum"  
    from="0 0 0"
    to="-1440 225 300"
    dur="3s"
    begin="0;o2.end"
    repeatCount="1"/>
    <animateTransform attributeName="transform" 
    type="scale"
    additive="sum"    
    from="0, 0"
    to="1, 1"  
    beg="0s"
    dur="3s"
    repeatCount="1"/>
</use>
</svg>